<svg version="1.1" viewBox="0.0 0.0 652.7585301837271 704.4829396325459" fill="none" stroke="none" stroke-linecap="square" stroke-miterlimit="10" xmlns:xlink="http://www.w3.org/1999/xlink" xmlns="http://www.w3.org/2000/svg"><clipPath id="p.0"><path d="m0 0l652.75854 0l0 704.4829l-652.75854 0l0 -704.4829z" clip-rule="nonzero"/></clipPath><g clip-path="url(#p.0)"><path fill="#000000" fill-opacity="0.0" d="m0 0l652.75854 0l0 704.4829l-652.75854 0z" fill-rule="evenodd"/><path fill="#657e93" d="m333.1204 24.50986l83.279816 83.21565l-165.78972 0l82.5099 -83.21565zm-0.38497925 -24.445c-2.6947021 0 -5.325287 0.7699212 -7.2500916 2.2456036l-104.64511 105.41505l-165.01979 0c-6.095211 0 -10.714737 4.6195297 -10.714737 10.714737l0 170.34506l-34.325653 0c-6.1593695 0 -10.714737 5.3894653 -10.714737 10.714752l0 392.65985c0 6.095154 4.5553675 10.650574 10.714737 10.650574l107.66065 0c6.1593704 0 10.714745 -4.55542 10.714745 -10.650574c0 -5.3894653 -4.555374 -10.714783 -10.714745 -10.714783l-97.01007 0l0 -361.34967l48.12007 35.15973c1.9889679 1.0907288 4.0420914 1.6040039 6.0310516 1.6040039c3.4004898 0 6.5443344 -1.4756775 8.533295 -3.9137573c3.0155258 -4.5553894 2.2456055 -11.420502 -2.309761 -13.730286l-14.500183 -12.254578l0 -25.920685l0 -1.5398254l0 -0.769928l0 -169.57515l520.98 0l0 38.94519c0 5.325287 4.555359 10.714737 10.650574 10.714737c5.3894653 0 9.944824 -5.38945 9.944824 -10.714737l0 -49.659927c-1.539856 -6.095207 -6.095215 -10.714737 -12.19043 -10.714737l-152.05942 0l-104.64514 -105.41505c-1.9248047 -1.4756824 -4.555359 -2.2456036 -7.2500916 -2.2456036z" fill-rule="evenodd"/><path fill="#657e93" d="m181.89502 203.2599l0 42.730637l-43.564697 0l0 -42.730637zm-53.50952 -20.659546c-6.095207 0 -10.650574 4.619522 -10.650574 9.944809l0 64.160095c0 6.095215 4.5553665 10.714752 10.650574 10.714752l63.390182 0c6.159363 0 10.714737 -4.6195374 10.714737 -10.714752l0 -64.160095c-0.769928 -5.325287 -5.325287 -9.944809 -10.714737 -9.944809z" fill-rule="evenodd"/><path fill="#657e93" d="m245.2852 182.60036c-5.325287 0 -9.944809 4.619522 -9.944809 9.944809c0 6.095215 4.619522 10.714737 9.944809 10.714737l44.270462 0c5.3894653 0 10.714752 -4.619522 10.714752 -10.714737c0 -5.325287 -5.325287 -9.944809 -10.714752 -9.944809z" fill-rule="evenodd"/><path fill="#657e93" d="m246.82504 237.58556c-6.159363 0 -10.714737 4.6195374 -10.714737 10.714737c0 5.325287 4.555374 10.714752 10.714737 10.714752l192.48032 0c5.325287 0 10.714722 -5.3894653 10.714722 -10.714752c0 -6.8651276 -4.619507 -10.714737 -10.714722 -10.714737z" fill-rule="evenodd"/><path fill="#657e93" d="m152.8305 322.4052c-5.325302 0 -10.650589 4.555359 -10.650589 10.714752c0 6.0951843 5.325287 10.650574 10.650589 10.650574l107.72479 0c6.095215 0 10.714752 -4.5553894 10.714752 -10.650574c0 -6.1593933 -4.6195374 -10.714752 -10.714752 -10.714752z" fill-rule="evenodd"/><path fill="#657e93" d="m75.71005 622.61035c-6.1593704 0 -10.714737 4.619507 -10.714737 10.714722c0 5.3252563 4.5553665 9.944824 10.714737 9.944824l83.98558 0c5.38945 0 10.714737 -4.619568 10.714737 -9.944824c0 -6.095215 -5.325287 -10.714722 -10.714737 -10.714722z" fill-rule="evenodd"/><path fill="#657e93" d="m472.92526 409.47046l-32.849976 22.96933l-226.87013 0l-32.849976 -22.96933zm-61.144592 44.334656l-32.849976 22.905151l-104.64511 0l-32.84999 -22.905151zm-61.080414 42.79477l-23.67508 16.809967l-24.445007 -16.809967zm245.21991 -297.18958c-5.3894653 0 -10.714722 4.6195374 -10.714722 10.714737l0 89.37503l0 26.75476l-85.52542 61.080414l-349.86505 0l-34.389816 -24.445007c-1.924797 -1.2832031 -4.2345657 -1.8606262 -6.480171 -1.8606262c-3.0796814 0 -5.9668884 1.1548767 -7.314247 3.4004822c-3.0155258 4.555359 -2.2456055 11.420502 1.5398407 14.500183l216.21956 155.07498c1.9248047 1.1548462 3.9779053 1.7322998 6.0951843 1.7322998c2.1173096 0 4.17041 -0.5774536 6.095215 -1.7322998l299.49936 -215.38547l0 362.05545l-472.15417 0c-6.0951996 0 -10.650574 4.555359 -10.650574 10.714722c0 5.3253174 4.555374 10.650574 10.650574 10.650574l482.03485 0c5.3894043 0 10.714722 -5.3252563 10.714722 -10.650574l0 -392.65982c0.25665283 0.25665283 0.44909668 0.32080078 0.51330566 0.32080078c0.2565918 0 0.2565918 -0.32080078 0.2565918 -0.32080078c-0.76989746 -4.555359 -4.619507 -8.404968 -10.714722 -8.404968l-35.09558 0l0 -80.200134c0 -6.0951996 -4.619507 -10.714737 -10.714722 -10.714737z" fill-rule="evenodd"/></g></svg>